<?xml version="1.0" encoding="utf-8"?>
<!-- Generator: Adobe Illustrator 26.3.1, SVG Export Plug-In . SVG Version: 6.00 Build 0)  -->
<svg version="1.1" xmlns="http://www.w3.org/2000/svg" xmlns:xlink="http://www.w3.org/1999/xlink" x="0px" y="0px"
	 viewBox="0 0 612 792" style="enable-background:new 0 0 612 792;" xml:space="preserve">
<style type="text/css">
	.st0{fill:#FFFFFF;stroke:#231F20;stroke-width:1.6072;stroke-miterlimit:10;}
	.st1{fill:none;}
	.st2{fill:#231F20;}
	.st3{font-family:'Helvetica-Bold';}
	.st4{font-size:12px;}
	.st5{font-family:'Helvetica-LightOblique';}
	.st6{font-family:'Helvetica';}
	.st7{font-size:11px;}
	.st8{font-size:20px;}
	.st9{font-family:'Helvetica-Light';}
	.st10{font-size:36px;}
	.st11{fill:none;stroke:#231F20;stroke-width:0.5;stroke-linecap:round;stroke-linejoin:round;}
	.st12{fill:#3B97D3;}
	.st13{fill:#FFFFFF;}
	.st14{fill:none;stroke:#D1D3D4;stroke-width:0.5;stroke-linecap:round;stroke-linejoin:round;}
	.st15{fill:#D1D3D4;}
	.st16{fill:none;stroke:#FFFFFF;stroke-width:0.75;stroke-linecap:round;stroke-linejoin:round;stroke-miterlimit:10;}
	.st17{font-family:'Avenir-Heavy';}
	.st18{opacity:0.49;fill:#859193;}
	.st19{fill:none;stroke:#231F20;stroke-miterlimit:10;}
</style>
<g id="BASELINE__x2B__GRID">
</g>
<g id="TYPE">
	<rect x="55.7" y="285.3" class="st1" width="443.9" height="41.8"/>
	<text transform="matrix(1 0 0 1 55.6737 293.9351)"><tspan x="0" y="0" class="st2 st3 st4">Web Development Coding Bootcamp </tspan><tspan x="214" y="0" class="st2 st5 st4">University of Richmond</tspan><tspan x="0" y="15" class="st2 st6 st7">Javascript, HTML, CSS, React, MySQL, Node.js, Express, Mongo, Git</tspan></text>
	<g>
		<rect x="33.2" y="202.1" class="st1" width="327.4" height="24"/>
		<text transform="matrix(1 0 0 1 33.184 216.4625)" class="st2 st3 st8">Relevant experience</text>
	</g>
	<g>
		<rect x="33.2" y="327.8" class="st1" width="327.4" height="24"/>
		<text transform="matrix(1 0 0 1 33.184 342.1973)" class="st2 st3 st8">Work experience</text>
	</g>
	<rect x="55.7" y="228.4" class="st1" width="523.5" height="46.9"/>
	<text transform="matrix(1 0 0 1 55.6736 237.056)"><tspan x="0" y="0" class="st2 st3 st4">Showcase Website </tspan><tspan x="111.4" y="0" class="st2 st5 st4"> camillemhughes.com</tspan><tspan x="0" y="18" class="st2 st9 st4">Multi-page front-end web application developed and designed to showcase portfolio work.</tspan><tspan x="0" y="33" class="st2 st6 st7">Vue3, HTML, CSS, Javascript, Adobe Xd</tspan></text>
	<text transform="matrix(1 0 0 1 33.4698 53.872)"><tspan x="0" y="0" class="st2 st3 st10">Ca</tspan><tspan x="46" y="0" class="st2 st3 st10">m</tspan><tspan x="78.7" y="0" class="st2 st3 st10">ille </tspan><tspan x="138.8" y="0" class="st2 st3 st10">H</tspan><tspan x="164.1" y="0" class="st2 st3 st10">ughes</tspan></text>
	<rect x="55.7" y="586.8" class="st1" width="327.3" height="43.2"/>
	<text transform="matrix(1 0 0 1 55.674 595.4006)"><tspan x="0" y="0" class="st3 st4">Graphic Designer</tspan><tspan x="0" y="15" class="st5 st4">Hotel Greene, Richmond, VA</tspan><tspan x="0" y="30" class="st5 st4">Freelance, Richmond, VA</tspan></text>
	<g>
		<text transform="matrix(1 0 0 1 459.9968 292.6456)" class="st2 st6 st7"> Oct 2018—May 2019</text>
	</g>
	<g>
		<text transform="matrix(1 0 0 1 443.4865 622.7923)" class="st2 st6 st7">      Dec 2015—Dec 2020</text>
	</g>
	<g>
		<g>
			<line class="st11" x1="237.5" y1="209.9" x2="566.9" y2="209.9"/>
			<g>
				<rect x="235.9" y="208.2" class="st2" width="3.3" height="3.3"/>
			</g>
		</g>
	</g>
	<g>
		<g>
			<line class="st11" x1="202.9" y1="335.4" x2="566.9" y2="335.4"/>
			<g>
				<rect x="201.3" y="333.7" class="st2" width="3.3" height="3.3"/>
			</g>
		</g>
	</g>
	<rect x="36.2" y="74" class="st1" width="525.6" height="54.6"/>
	<text transform="matrix(1 0 0 1 36.1867 81.8999)"><tspan x="0" y="0" class="st2 st9 st7">Enthusiastic web developer seeking  growth-oriented work environment. Experienced in operations </tspan><tspan x="0" y="13" class="st2 st9 st7">management and client relations, where I gained valuable transferable skills in strategic planning, project </tspan><tspan x="0" y="26" class="st2 st9 st7">management, and relationship building. Committed to lifelong learning and personal development, eager </tspan><tspan x="0" y="39" class="st2 st9 st7">to leverage my diverse range of talents in a new and engaging setting.</tspan></text>
	<g>
		<text transform="matrix(1 0 0 1 452.655 607.962)" class="st2 st6 st7">      Aug 2019—Present</text>
	</g>
	<rect x="55.7" y="375.3" class="st1" width="385.4" height="44.4"/>
	<text transform="matrix(1 0 0 1 55.6737 385.5745)"><tspan x="0" y="0" class="st3 st4">Chief Operating Officer</tspan><tspan x="132" y="0" class="st17 st4"> </tspan><tspan x="135.6" y="0" class="st5 st4">Hotel Greene, Richmond, VA</tspan><tspan x="0" y="15" class="st2 st6 st7">Promoted from: Operations Manager | Mar 2020—Mar 2021</tspan><tspan x="0" y="30" class="st2 st6 st7">Promoted from: Front of House Manager/Staff Manager | Aug 2019—Mar 2020</tspan></text>
	<rect x="73.5" y="427.4" class="st1" width="495" height="152.6"/>
	<text transform="matrix(1 0 0 1 73.4571 435.3166)"><tspan x="0" y="0" class="st5 st7">Led management team: fostered collaboration, ensured target outcomes for special events,  </tspan><tspan x="0" y="15" class="st5 st7">and managed deadlines for all operational and marketing milestones</tspan><tspan x="0" y="33" class="st5 st7">Successfully oversaw sales exceeding $US500,000 annually</tspan><tspan x="0" y="51" class="st5 st7">Learned and utilized company technology suite to systematize in-house processes </tspan><tspan x="0" y="66" class="st5 st7">(Squarespace, Toast, SevenRooms, Mailchimp, Google Suites)</tspan><tspan x="0" y="84" class="st5 st7">Formulated new customer and staff business infrastructure to meet the shifting demands of </tspan><tspan x="0" y="99" class="st5 st7">COVID-19 while increasing positive customer satisfaction by 7% in feedback results</tspan><tspan x="0" y="117" class="st5 st7">Devised employee growth strategies and feedback cycles, resulting in 92% employee retention rate</tspan><tspan x="0" y="135" class="st5 st7">Created staff onboarding and training policies, cutting training labor costs by 22%</tspan></text>
	<g>
		<text transform="matrix(1 0 0 1 446.5322 385.5297)" class="st2 st6 st7">     Aug 2019—Dec 2021</text>
	</g>
	<polygon points="67.2,432.7 67.2,431.5 68.8,432.1 70.3,432.7 68.8,433.3 67.2,433.9 	"/>
	<polygon points="67.2,464.8 67.2,463.6 68.8,464.2 70.3,464.8 68.8,465.4 67.2,466 	"/>
	<polygon points="67.2,483.2 67.2,482.1 68.8,482.7 70.3,483.2 68.8,483.8 67.2,484.4 	"/>
	<polygon points="67.2,515.6 67.2,514.4 68.8,515 70.3,515.6 68.8,516.2 67.2,516.8 	"/>
	<polygon points="67.2,549.1 67.2,548 68.8,548.6 70.3,549.1 68.8,549.7 67.2,550.3 	"/>
	<polygon points="67.2,568 67.2,566.9 68.8,567.4 70.3,568 68.8,568.6 67.2,569.2 	"/>
	<rect x="55.7" y="354.6" class="st1" width="459.8" height="10.4"/>
	<text transform="matrix(1 0 0 1 55.6737 364.9142)"><tspan x="0" y="0" class="st3 st4">Operations and Brand Advisor</tspan><tspan x="174" y="0" class="st17 st4"> </tspan><tspan x="177.6" y="0" class="st5 st4">Hotel Greene, Richmond, VA </tspan></text>
	<g>
		<text transform="matrix(1 0 0 1 468.5429 363.9836)" class="st2 st6 st7">   Jan 2022–Present</text>
	</g>
	<rect x="55.7" y="640.4" class="st1" width="320.8" height="26.3"/>
	<text transform="matrix(1 0 0 1 55.674 649.0646)"><tspan x="0" y="0" class="st3 st4">Shift Supervisor </tspan><tspan x="96" y="0" class="st5 st4">Greenleaf’s Pool Room, Richmond, VA</tspan><tspan x="0" y="15" class="st2 st6 st7">Promoted from: Head Server | Nov 2015—May 2017</tspan></text>
	<g>
		<text transform="matrix(1 0 0 1 443.9262 648.3658)"><tspan x="0" y="0" class="st2 st6 st7">      Nov </tspan><tspan x="41" y="0" class="st2 st6 st7">2</tspan><tspan x="47.3" y="0" class="st2 st6 st7">0</tspan><tspan x="53.2" y="0" class="st2 st6 st7">1</tspan><tspan x="58.9" y="0" class="st2 st6 st7">5—Nov 2019</tspan></text>
	</g>
	<g>
		<text transform="matrix(1 0 0 1 542.5288 235.9197)" class="st2 st6 st7">2022</text>
	</g>
	<g>
		<rect x="315.6" y="31.2" class="st1" width="251.4" height="28.7"/>
		<text transform="matrix(1 0 0 1 350.1903 39.1367)"><tspan x="0" y="0" class="st2 st6 st7">hughescamillem@gmail.com | </tspan><tspan x="149.7" y="0" class="st2 st6 st7">7</tspan><tspan x="155.6" y="0" class="st2 st6 st7">03.341.7898</tspan><tspan x="34.2" y="15" class="st2 st6 st7">camillemhughes.com | Richmond, VA</tspan></text>
	</g>
	<g>
		<rect x="33.2" y="684.9" class="st1" width="113.7" height="24"/>
		<text transform="matrix(1 0 0 1 33.184 699.3002)" class="st2 st3 st8">Education</text>
	</g>
	<g>
		<g>
			<line class="st11" x1="140.4" y1="692.5" x2="566.9" y2="692.5"/>
			<g>
				<rect x="138.8" y="690.9" class="st2" width="3.3" height="3.3"/>
			</g>
		</g>
	</g>
	<rect x="55.7" y="712.4" class="st1" width="520.1" height="12"/>
	<text transform="matrix(1 0 0 1 55.6737 721.4576)"><tspan x="0" y="0" class="st2 st3 st4">B.F.A. Communication Arts</tspan><tspan x="156" y="0" class="st2 st17 st4"> </tspan><tspan x="159.6" y="0" class="st5 st4">Virginia Commonwealth </tspan><tspan x="289.6" y="0" class="st5 st4">U</tspan><tspan x="297.9" y="0" class="st5 st4">niversity</tspan></text>
	<g>
		<text transform="matrix(1 0 0 1 442.2565 719.8603)" class="st2 st6 st7">      Aug 2011—May 2015</text>
	</g>
	<g>
		<rect x="33.2" y="138.9" class="st1" width="70.8" height="24"/>
		<text transform="matrix(1 0 0 1 33.184 153.2604)" class="st2 st3 st8">Skills</text>
	</g>
	<g>
		<g>
			<line class="st11" x1="96" y1="146.3" x2="566.9" y2="146.3"/>
			<g>
				<rect x="94.4" y="144.6" class="st2" width="3.3" height="3.3"/>
			</g>
		</g>
	</g>
	<g>
		<rect x="55.7" y="163.6" class="st1" width="520.1" height="26.1"/>
		<text transform="matrix(1 0 0 1 55.6737 171.5444)"><tspan x="0" y="0" class="st2 st9 st7">Javascript, HTML, CSS, Vue, Express, Node.js, Git, APIs, MySQL, Mongo,  Adobe CC, Microsoft Word </tspan><tspan x="0" y="14" class="st2 st9 st7">Communication, Problem-solving, Initiative, Time management, Organization, Leadership</tspan></text>
	</g>
	<g>
		<rect x="37.9" y="742.3" class="st1" width="539.2" height="17.1"/>
		<text transform="matrix(1 0 0 1 37.885 750.1948)" class="st2 st6 st7">linkedin.com/in/camillemhughes | github.com/camille-the-eel</text>
	</g>
</g>
<g id="Layer_3">
</g>
<g id="Layer_4">
</g>
</svg>
